HIERARCHY
ROOT Hips
{
	OFFSET 0.000000 83.214638 0.000000
	CHANNELS 6 Xposition Yposition Zposition Xrotation Yrotation Zrotation
	JOINT Pelvis
	{
		OFFSET 0.000000 0.000000 0.000000
		CHANNELS 3 Xrotation Yrotation Zrotation
		JOINT LeftUpLeg
		{
			OFFSET 8.479700 -4.795502 -0.379100
			CHANNELS 3 Xrotation Yrotation Zrotation
			JOINT LeftLeg
			{
				OFFSET 0.024144 -32.555107 0.112900
				CHANNELS 3 Xrotation Yrotation Zrotation
				JOINT LeftFoot
				{
					OFFSET -0.024144 -32.638630 -3.012600
					CHANNELS 3 Xrotation Yrotation Zrotation
					JOINT LeftToeBase
					{
						OFFSET 0.970200 -13.225400 11.864200
						CHANNELS 3 Xrotation Yrotation Zrotation
						End Site
						{
							OFFSET 0.000000 12.319262 0.000000
						}
					}
					JOINT LFootTongue
					{
						OFFSET 1.142400 -1.059800 6.665200
						CHANNELS 3 Xrotation Yrotation Zrotation
						End Site
						{
							OFFSET 0.000000 12.319262 0.000000
						}
					}
				}
				JOINT LeftPantLeg
				{
					OFFSET 0.918482 -16.533964 -2.284700
					CHANNELS 3 Xrotation Yrotation Zrotation
					End Site
					{
						OFFSET 0.350399 24.744368 0.000000
					}
				}
			}
		}
		JOINT RightUpLeg
		{
			OFFSET -8.479700 -4.795502 -0.379100
			CHANNELS 3 Xrotation Yrotation Zrotation
			JOINT RightLeg
			{
				OFFSET -0.023144 -32.555092 0.112900
				CHANNELS 3 Xrotation Yrotation Zrotation
				JOINT RightFoot
				{
					OFFSET 0.023144 -32.638641 -3.012700
					CHANNELS 3 Xrotation Yrotation Zrotation
					JOINT RightToeBase
					{
						OFFSET -0.970200 -13.225400 11.864200
						CHANNELS 3 Xrotation Yrotation Zrotation
						End Site
						{
							OFFSET 0.000000 12.319244 0.000000
						}
					}
					JOINT RFootTongue
					{
						OFFSET -1.142200 -1.059800 6.665200
						CHANNELS 3 Xrotation Yrotation Zrotation
						End Site
						{
							OFFSET 0.000000 12.319243 0.000000
						}
					}
				}
				JOINT RightPantLeg
				{
					OFFSET -0.919482 -16.533978 -2.284800
					CHANNELS 3 Xrotation Yrotation Zrotation
					End Site
					{
						OFFSET -0.350400 24.744419 0.000000
					}
				}
			}
		}
	}
	JOINT Spine
	{
		OFFSET 0.000000 7.722000 1.166200
		CHANNELS 3 Xrotation Yrotation Zrotation
		JOINT Spine1
		{
			OFFSET 0.000000 12.024101 0.248800
			CHANNELS 3 Xrotation Yrotation Zrotation
			JOINT Spine2
			{
				OFFSET 0.000000 11.502998 -0.491200
				CHANNELS 3 Xrotation Yrotation Zrotation
				JOINT Neck
				{
					OFFSET 0.000000 18.430702 -3.123100
					CHANNELS 3 Xrotation Yrotation Zrotation
					JOINT Head
					{
						OFFSET 0.000000 9.051102 1.034000
						CHANNELS 3 Xrotation Yrotation Zrotation
						JOINT HairB
						{
							OFFSET 0.208400 24.786102 24.822300
							CHANNELS 3 Xrotation Yrotation Zrotation
							End Site
							{
								OFFSET 0.000000 32.263779 0.000000
							}
						}
						JOINT HairA
						{
							OFFSET -7.081100 24.428299 23.196600
							CHANNELS 3 Xrotation Yrotation Zrotation
							End Site
							{
								OFFSET 0.000000 32.263779 0.000000
							}
						}
						JOINT Hat
						{
							OFFSET 16.728800 15.048294 -15.439601
							CHANNELS 3 Xrotation Yrotation Zrotation
							End Site
							{
								OFFSET 0.000000 32.263779 0.000000
							}
						}
					}
				}
				JOINT LeftShoulder
				{
					OFFSET 6.197800 13.665199 -4.064700
					CHANNELS 3 Xrotation Yrotation Zrotation
					JOINT LeftArm
					{
						OFFSET 7.778100 -0.187103 -1.709300
						CHANNELS 3 Xrotation Yrotation Zrotation
						JOINT LeftForeArm
						{
							OFFSET 22.049376 0.000000 0.000000
							CHANNELS 3 Xrotation Yrotation Zrotation
							JOINT LeftHand
							{
								OFFSET 23.009392 0.000000 0.000000
								CHANNELS 3 Xrotation Yrotation Zrotation
								JOINT LeftHandThumb1
								{
									OFFSET 3.507191 -2.063065 3.133727
									CHANNELS 3 Xrotation Yrotation Zrotation
									JOINT LeftHandThumb2
									{
										OFFSET 3.101337 -1.790558 1.790558
										CHANNELS 3 Xrotation Yrotation Zrotation
										JOINT LeftHandThumb3
										{
											OFFSET 3.058640 -1.765907 1.765906
											CHANNELS 3 Xrotation Yrotation Zrotation
											End Site
											{
												OFFSET -0.415260 3.926476 -0.049563
											}
										}
									}
								}
								JOINT LeftHandIndex1
								{
									OFFSET 11.334419 -0.901459 3.706815
									CHANNELS 3 Xrotation Yrotation Zrotation
									JOINT LeftHandIndex2
									{
										OFFSET 3.283112 0.000000 0.000000
										CHANNELS 3 Xrotation Yrotation Zrotation
										JOINT LeftHandIndex3
										{
											OFFSET 3.323853 0.000000 0.000000
											CHANNELS 3 Xrotation Yrotation Zrotation
											End Site
											{
												OFFSET -1.135597 3.097809 0.402452
											}
										}
									}
								}
								JOINT LeftHandMiddle1
								{
									OFFSET 11.335861 0.000000 0.000000
									CHANNELS 3 Xrotation Yrotation Zrotation
									JOINT LeftHandMiddle2
									{
										OFFSET 3.410492 0.000000 0.000000
										CHANNELS 3 Xrotation Yrotation Zrotation
										JOINT LeftHandMiddle3
										{
											OFFSET 3.312172 0.000000 0.000000
											CHANNELS 3 Xrotation Yrotation Zrotation
											End Site
											{
												OFFSET -1.150200 3.080154 0.400270
											}
										}
									}
								}
								JOINT LeftHandRing1
								{
									OFFSET 11.514786 -0.013176 -3.003090
									CHANNELS 3 Xrotation Yrotation Zrotation
									JOINT LeftHandRing2
									{
										OFFSET 3.053307 0.000000 0.000000
										CHANNELS 3 Xrotation Yrotation Zrotation
										JOINT LeftHandRing3
										{
											OFFSET 3.295807 0.000000 0.000000
											CHANNELS 3 Xrotation Yrotation Zrotation
											End Site
											{
												OFFSET -1.281006 3.013344 0.375733
											}
										}
									}
								}
								JOINT LeftHandPinky1
								{
									OFFSET 10.518692 -0.960396 -5.730441
									CHANNELS 3 Xrotation Yrotation Zrotation
									JOINT LeftHandPinky2
									{
										OFFSET 2.861649 0.000000 0.000000
										CHANNELS 3 Xrotation Yrotation Zrotation
										JOINT LeftHandPinky3
										{
											OFFSET 2.863380 0.000000 0.000000
											CHANNELS 3 Xrotation Yrotation Zrotation
											End Site
											{
												OFFSET -0.843597 2.711159 0.369971
											}
										}
									}
								}
							}
							JOINT LSleeve
							{
								OFFSET 6.676277 -0.344902 -1.011730
								CHANNELS 3 Xrotation Yrotation Zrotation
								End Site
								{
									OFFSET 0.000000 14.885353 0.000000
								}
							}
						}
					}
				}
				JOINT RightShoulder
				{
					OFFSET -6.197800 13.665199 -4.064700
					CHANNELS 3 Xrotation Yrotation Zrotation
					JOINT RightArm
					{
						OFFSET -7.778100 -0.187103 -1.709300
						CHANNELS 3 Xrotation Yrotation Zrotation
						JOINT RightForeArm
						{
							OFFSET -22.049376 0.000000 0.000000
							CHANNELS 3 Xrotation Yrotation Zrotation
							JOINT RightHand
							{
								OFFSET -23.009392 0.000000 0.000000
								CHANNELS 3 Xrotation Yrotation Zrotation
								JOINT RightHandThumb1
								{
									OFFSET -3.507191 -2.063065 3.133727
									CHANNELS 3 Xrotation Yrotation Zrotation
									JOINT RightHandThumb2
									{
										OFFSET -3.101337 -1.790558 1.790558
										CHANNELS 3 Xrotation Yrotation Zrotation
										JOINT RightHandThumb3
										{
											OFFSET -3.058640 -1.765907 1.765906
											CHANNELS 3 Xrotation Yrotation Zrotation
											End Site
											{
												OFFSET 0.415260 3.926476 -0.049563
											}
										}
									}
								}
								JOINT RightHandIndex1
								{
									OFFSET -11.334419 -0.901459 3.706815
									CHANNELS 3 Xrotation Yrotation Zrotation
									JOINT RightHandIndex2
									{
										OFFSET -3.283112 0.000000 0.000000
										CHANNELS 3 Xrotation Yrotation Zrotation
										JOINT RightHandIndex3
										{
											OFFSET -3.323853 0.000000 0.000000
											CHANNELS 3 Xrotation Yrotation Zrotation
											End Site
											{
												OFFSET 1.135597 3.097809 0.402452
											}
										}
									}
								}
								JOINT RightHandMiddle1
								{
									OFFSET -11.335861 0.000000 0.000000
									CHANNELS 3 Xrotation Yrotation Zrotation
									JOINT RightHandMiddle2
									{
										OFFSET -3.410492 0.000000 0.000000
										CHANNELS 3 Xrotation Yrotation Zrotation
										JOINT RightHandMiddle3
										{
											OFFSET -3.312172 0.000000 0.000000
											CHANNELS 3 Xrotation Yrotation Zrotation
											End Site
											{
												OFFSET 1.150200 3.080154 0.400270
											}
										}
									}
								}
								JOINT RightHandRing1
								{
									OFFSET -11.514786 -0.013176 -3.003090
									CHANNELS 3 Xrotation Yrotation Zrotation
									JOINT RightHandRing2
									{
										OFFSET -3.053307 0.000000 0.000000
										CHANNELS 3 Xrotation Yrotation Zrotation
										JOINT RightHandRing3
										{
											OFFSET -3.295807 0.000000 0.000000
											CHANNELS 3 Xrotation Yrotation Zrotation
											End Site
											{
												OFFSET 1.281006 3.013344 0.375733
											}
										}
									}
								}
								JOINT RightHandPinky1
								{
									OFFSET -10.518692 -0.960396 -5.730441
									CHANNELS 3 Xrotation Yrotation Zrotation
									JOINT RightHandPinky2
									{
										OFFSET -2.861649 0.000000 0.000000
										CHANNELS 3 Xrotation Yrotation Zrotation
										JOINT RightHandPinky3
										{
											OFFSET -2.863380 0.000000 0.000000
											CHANNELS 3 Xrotation Yrotation Zrotation
											End Site
											{
												OFFSET 0.843597 2.711159 0.369971
											}
										}
									}
								}
							}
							JOINT RSleeve
							{
								OFFSET -6.676277 -0.344902 -1.011730
								CHANNELS 3 Xrotation Yrotation Zrotation
								End Site
								{
									OFFSET 0.000000 14.885353 0.000000
								}
							}
						}
					}
				}
				JOINT Backpack
				{
					OFFSET 0.000000 -2.471497 36.677502
					CHANNELS 3 Xrotation Yrotation Zrotation
					End Site
					{
						OFFSET 0.000000 20.427315 0.000000
					}
				}
				JOINT Hood
				{
					OFFSET 0.000000 18.754097 -10.431000
					CHANNELS 3 Xrotation Yrotation Zrotation
					JOINT Hood1
					{
						OFFSET 0.000000 -5.011002 -7.685901
						CHANNELS 3 Xrotation Yrotation Zrotation
						End Site
						{
							OFFSET 0.000000 9.175140 0.000000
						}
					}
				}
				JOINT LHoodieString
				{
					OFFSET 5.250500 16.397697 3.089900
					CHANNELS 3 Xrotation Yrotation Zrotation
					JOINT LHoodieString1
					{
						OFFSET 0.257700 -6.364304 3.694600
						CHANNELS 3 Xrotation Yrotation Zrotation
						JOINT LHoodieString2
						{
							OFFSET 0.000000 -9.643799 2.679100
							CHANNELS 3 Xrotation Yrotation Zrotation
							End Site
							{
								OFFSET 0.000000 10.009018 0.000000
							}
						}
					}
				}
				JOINT RHoodieString
				{
					OFFSET -5.250500 16.397697 3.089900
					CHANNELS 3 Xrotation Yrotation Zrotation
					JOINT RHoodieString1
					{
						OFFSET -0.257700 -6.364304 3.694600
						CHANNELS 3 Xrotation Yrotation Zrotation
						JOINT RHoodieString2
						{
							OFFSET 0.000000 -9.643799 2.679100
							CHANNELS 3 Xrotation Yrotation Zrotation
							End Site
							{
								OFFSET 0.000000 10.009018 0.000000
							}
						}
					}
				}
			}
			JOINT LBackpack_Strap
			{
				OFFSET 15.223200 -7.719803 -6.610900
				CHANNELS 3 Xrotation Yrotation Zrotation
				End Site
				{
					OFFSET 0.000000 16.040596 0.000000
				}
			}
			JOINT RBackpack_Strap
			{
				OFFSET -15.223000 -7.719803 -6.610900
				CHANNELS 3 Xrotation Yrotation Zrotation
				End Site
				{
					OFFSET 0.000000 16.040596 0.000000
				}
			}
		}
	}
	JOINT BoyFacialAnim_Joint
	{
		OFFSET 1.000000 -82.208099 -1.550900
		CHANNELS 3 Xrotation Yrotation Zrotation
		End Site
		{
			OFFSET 0.000000 30.012791 0.000000
		}
	}
}
MOTION
Frames: 4
Frame Time: 0.033333
-0.108666 60.528458 0.016727 -14.859688 0.401865 1.122860 -0.000000 -0.000000 -0.000000 -60.707643 6.781685 18.773663 77.210480 -0.416066 2.016596 -1.617391 -0.105071 1.146511 -0.000000 0.000001 -0.000000 -0.000000 0.000001 -0.000000 0.000000 -0.000001 0.000000 -62.446104 -4.097561 -18.683726 77.017336 3.103018 -2.601855 7.739004 -0.046310 -6.009540 0.000000 0.000000 -0.000000 0.000000 0.000000 -0.000000 -0.000000 -0.000001 -0.000000 7.986697 -0.042043 -0.271627 3.685440 0.243714 0.193119 3.686086 0.269678 0.164256 7.919084 -0.100361 0.268776 -14.414325 -1.370041 4.705668 0.000000 0.000000 0.000000 0.000000 0.000000 0.000000 0.000000 0.000000 0.000000 -5.293758 -20.517407 -14.003165 2.659330 -35.217241 -49.765721 0.000024 -20.415446 0.000015 21.406704 -1.463881 48.905999 5.250230 -1.002405 18.723727 13.423628 25.808686 -6.803646 0.000001 0.000000 0.000001 -2.570876 -5.714167 -20.873476 0.205861 1.674344 -14.017429 -0.000000 0.000001 -0.000002 -1.322467 -3.715939 -16.147602 0.131950 1.344259 -11.212173 0.000001 -0.000001 -0.000002 -0.582229 -1.659407 -13.493749 0.208500 1.684897 -14.107885 -0.000001 0.000000 -0.000002 0.082384 1.188815 -14.185374 0.056323 -3.103095 -8.418335 0.000000 -0.000000 -0.000000 0.000001 -0.000001 0.000004 -2.843219 15.277721 14.612187 -0.440177 28.434831 49.671728 -0.000013 33.670681 0.000024 32.643697 4.647788 -35.781718 -4.104610 7.735900 -9.788165 21.532315 -41.305087 5.278137 -0.000000 0.000001 -0.000000 -1.929829 2.230566 26.855214 0.000246 -0.059961 0.491889 -0.000001 -0.000001 0.000005 0.556662 -2.841181 17.408305 0.116308 -1.269019 10.472907 0.000002 0.000001 -0.000004 0.335784 -2.214494 13.693782 0.222794 -1.749411 14.514405 -0.000000 0.000003 0.000003 0.570359 -3.394762 12.012652 0.093529 -1.138916 9.388806 0.000000 -0.000001 0.000003 -0.000001 -0.000001 0.000001 0.000000 0.000000 -0.000000 0.000000 0.000000 -0.000000 0.000000 0.000000 -0.000000 0.000000 0.000000 -0.000000 0.000000 0.000000 -0.000000 0.000000 -0.000000 -0.000000 0.000000 0.000000 -0.000000 0.000000 0.000000 -0.000000 0.000000 -0.000000 -0.000000 0.000000 -0.000000 -0.000000 0.000000 -0.000000 -0.000000 -0.000000 -0.000000 -0.000000 
-0.116451 60.526230 0.013592 -14.865990 0.396851 1.123192 0.000000 0.000000 0.000000 -60.711325 6.771953 18.786136 77.207345 -0.404227 2.012641 -1.572221 -0.104608 1.127407 -0.000000 -0.000000 0.000000 -0.000000 -0.000000 0.000000 -0.000000 -0.000002 0.000000 -62.443317 -4.110586 -18.669137 77.021373 3.044353 -2.606632 7.710977 -0.044304 -6.036817 -0.000001 -0.000001 -0.000000 -0.000001 -0.000001 -0.000000 -0.000000 0.000003 0.000000 7.985341 -0.039886 -0.270527 3.684085 0.245025 0.191279 3.684734 0.270698 0.162292 7.893061 -0.097082 0.268880 -14.374239 -1.346388 4.663375 -0.000000 -0.000000 -0.000000 -0.000000 -0.000000 -0.000000 -0.000000 -0.000000 -0.000000 -5.293469 -20.517241 -14.002260 2.661423 -35.247082 -49.753782 -0.000006 -20.357268 -0.000026 21.380598 -1.499152 48.907880 5.250231 -1.002406 18.723727 13.423626 25.808686 -6.803649 -0.000000 0.000002 -0.000001 -2.570875 -5.714168 -20.873475 0.205863 1.674342 -14.017432 -0.000002 0.000001 -0.000002 -1.322468 -3.715941 -16.147600 0.131950 1.344259 -11.212170 0.000002 -0.000001 0.000000 -0.582229 -1.659407 -13.493751 0.208501 1.684897 -14.107883 -0.000001 -0.000000 -0.000000 0.082384 1.188815 -14.185373 0.056323 -3.103095 -8.418335 0.000001 0.000001 -0.000000 -0.000004 0.000000 0.000002 -2.844431 15.273958 14.621748 -0.423936 28.438041 49.643314 -0.000003 33.703623 0.000007 32.628941 4.582758 -35.756129 -4.099678 7.687081 -9.765512 21.524095 -41.297530 5.273358 0.000000 -0.000002 -0.000001 -1.932306 2.240855 26.833057 0.000245 -0.058667 0.481274 0.000000 -0.000001 0.000005 0.551132 -2.824534 17.387821 0.116022 -1.267490 10.460365 0.000001 0.000001 -0.000000 0.334715 -2.211421 13.662495 0.222679 -1.749037 14.511053 -0.000002 -0.000000 0.000002 0.571961 -3.407969 11.977063 0.093112 -1.136451 9.368032 -0.000002 0.000001 0.000000 -0.000001 -0.000004 0.000002 -0.000000 0.000000 0.000000 -0.000000 0.000000 0.000000 -0.000000 0.000000 0.000000 -0.000000 0.000000 0.000000 -0.000000 0.000000 0.000000 -0.000000 -0.000000 0.000000 -0.000000 0.000000 0.000000 -0.000000 0.000000 0.000000 -0.000000 -0.000000 0.000000 -0.000000 0.000000 -0.000000 -0.000000 0.000000 -0.000000 0.000000 0.000000 0.000000 
-0.124965 60.520561 0.008905 -14.874935 0.385165 1.128954 -0.000001 0.000000 0.000000 -60.730818 6.761730 18.802712 77.206812 -0.391191 2.001926 -1.456978 -0.104458 1.126885 -0.000000 0.000000 0.000000 -0.000000 0.000000 0.000000 0.000000 -0.000003 0.000000 -62.448624 -4.120446 -18.646008 77.036249 2.997703 -2.620411 7.678773 -0.041034 -6.081136 -0.000000 0.000000 0.000000 -0.000000 0.000000 0.000000 -0.000000 0.000002 0.000000 7.981678 -0.035044 -0.269498 3.680372 0.248668 0.186175 3.681034 0.273528 0.156844 7.816276 -0.088098 0.271277 -14.264268 -1.281698 4.543466 0.000000 0.000000 -0.000000 0.000000 0.000000 -0.000000 0.000000 0.000000 -0.000000 -5.293523 -20.517052 -14.002630 2.673267 -35.313977 -49.728791 -0.000003 -20.252752 -0.000001 21.320523 -1.557958 48.916749 5.250228 -1.002406 18.723724 13.423627 25.808686 -6.803648 0.000000 0.000002 0.000001 -2.570877 -5.714167 -20.873476 0.205863 1.674343 -14.017432 -0.000000 0.000001 0.000000 -1.322470 -3.715940 -16.147604 0.131953 1.344259 -11.212172 0.000001 -0.000001 0.000004 -0.582231 -1.659406 -13.493753 0.208501 1.684899 -14.107886 -0.000001 0.000000 -0.000002 0.082382 1.188815 -14.185373 0.056325 -3.103096 -8.418332 -0.000000 0.000001 -0.000002 -0.000000 -0.000001 0.000004 -2.847468 15.264134 14.646110 -0.387798 28.453100 49.581340 0.000020 33.804245 -0.000040 32.593786 4.378006 -35.684357 -4.085236 7.543801 -9.699173 21.500030 -41.275359 5.259393 -0.000000 0.000002 -0.000000 -1.939486 2.270993 26.768024 0.000220 -0.054837 0.450165 -0.000000 -0.000001 0.000003 0.534956 -2.775680 17.327789 0.115205 -1.263113 10.423502 0.000002 0.000002 0.000000 0.331557 -2.202338 13.570755 0.222389 -1.747879 14.501144 0.000001 -0.000001 0.000000 0.576586 -3.446713 11.872659 0.091914 -1.129109 9.307150 -0.000001 -0.000001 -0.000002 -0.000003 -0.000000 -0.000003 -0.000000 0.000000 -0.000000 -0.000000 0.000000 -0.000000 -0.000000 0.000000 -0.000000 -0.000000 0.000000 -0.000000 -0.000000 0.000000 -0.000000 -0.000000 0.000000 -0.000000 -0.000000 0.000000 -0.000000 -0.000000 0.000000 -0.000000 -0.000000 0.000000 -0.000000 0.000000 -0.000000 -0.000000 0.000000 -0.000000 -0.000000 -0.000001 0.000000 0.000000 
-0.133245 60.510376 0.003601 -14.882887 0.364281 1.140988 -0.000000 0.000000 0.000000 -60.774101 6.749115 18.820351 77.212331 -0.377613 1.985919 -1.254046 -0.104394 1.149167 0.000000 0.000001 0.000000 0.000000 0.000001 0.000000 0.000000 -0.000001 -0.000000 -62.473145 -4.120828 -18.618840 77.061309 2.959803 -2.641155 7.675627 -0.037780 -6.123027 -0.000001 0.000000 0.000000 -0.000001 0.000000 0.000000 -0.000000 -0.000001 0.000000 7.976295 -0.028144 -0.268405 3.674833 0.254202 0.178432 3.675520 0.277821 0.148579 7.690627 -0.074637 0.279106 -14.099505 -1.185544 4.356337 0.000000 0.000000 0.000000 0.000000 0.000000 0.000000 0.000000 0.000000 0.000000 -5.294674 -20.517029 -14.006817 2.704337 -35.411485 -49.683076 -0.000006 -20.117081 0.000018 21.224861 -1.633581 48.931906 5.250230 -1.002406 18.723724 13.423628 25.808684 -6.803646 0.000001 -0.000001 0.000001 -2.570875 -5.714165 -20.873475 0.205862 1.674344 -14.017436 -0.000001 -0.000000 -0.000002 -1.322468 -3.715939 -16.147602 0.131951 1.344260 -11.212170 -0.000000 -0.000001 0.000002 -0.582230 -1.659406 -13.493751 0.208503 1.684897 -14.107884 0.000001 0.000000 -0.000002 0.082383 1.188816 -14.185374 0.056325 -3.103096 -8.418335 0.000001 0.000000 -0.000002 -0.000001 0.000001 0.000002 -2.851387 15.250323 14.678722 -0.334729 28.466097 49.486653 0.000004 33.968003 -0.000014 32.543662 4.060604 -35.569340 -4.061803 7.310788 -9.591542 21.460948 -41.239326 5.236734 -0.000001 -0.000000 0.000001 -1.951029 2.319984 26.662432 0.000165 -0.048699 0.399610 0.000000 0.000000 0.000005 0.508907 -2.696378 17.230271 0.113892 -1.255920 10.363648 0.000002 0.000001 -0.000000 0.326456 -2.187595 13.421765 0.221900 -1.745970 14.485066 -0.000000 -0.000000 0.000004 0.583731 -3.509610 11.703006 0.089972 -1.117210 9.208275 -0.000001 -0.000000 0.000002 -0.000001 0.000001 -0.000004 0.000000 -0.000000 -0.000000 0.000000 -0.000000 -0.000000 0.000000 -0.000000 -0.000000 0.000000 -0.000000 -0.000000 0.000000 -0.000000 -0.000000 -0.000000 -0.000000 -0.000000 0.000000 -0.000000 -0.000000 0.000000 -0.000000 -0.000000 -0.000000 -0.000000 -0.000000 -0.000000 0.000000 -0.000000 -0.000000 0.000000 -0.000000 -0.000000 0.000000 0.000000 
